<?xml version="1.0" encoding="UTF-8" standalone="no"?>
<!DOCTYPE svg PUBLIC "-//W3C//DTD SVG 1.1//EN"
 "http://www.w3.org/Graphics/SVG/1.1/DTD/svg11.dtd">
<!-- Generated by graphviz version 2.40.1 (20161225.0304)
 -->
<!-- Title: G Pages: 1 -->
<svg width="259pt" height="349pt"
 viewBox="0.00 0.00 258.97 349.00" xmlns="http://www.w3.org/2000/svg" xmlns:xlink="http://www.w3.org/1999/xlink">
<g id="graph0" class="graph" transform="scale(1 1) rotate(0) translate(4 345)">
<title>G</title>
<polygon fill="#ffffff" stroke="transparent" points="-4,4 -4,-345 254.9685,-345 254.9685,4 -4,4"/>
<!-- A0 -->
<g id="node1" class="node">
<title>A0</title>
<ellipse fill="none" stroke="#000000" cx="133.2975" cy="-330" rx="11" ry="11"/>
</g>
<!-- A1 -->
<g id="node2" class="node">
<title>A1</title>
<path fill="none" stroke="#000000" d="M169.1037,-282C169.1037,-282 97.4913,-282 97.4913,-282 91.4913,-282 85.4913,-276 85.4913,-270 85.4913,-270 85.4913,-258 85.4913,-258 85.4913,-252 91.4913,-246 97.4913,-246 97.4913,-246 169.1037,-246 169.1037,-246 175.1037,-246 181.1037,-252 181.1037,-258 181.1037,-258 181.1037,-270 181.1037,-270 181.1037,-276 175.1037,-282 169.1037,-282"/>
<text text-anchor="middle" x="133.2975" y="-261" font-family="Helvetica,sans-Serif" font-size="10.00" fill="#000000">{AguardaInicio}</text>
</g>
<!-- A0&#45;&gt;A1 -->
<g id="edge1" class="edge">
<title>A0&#45;&gt;A1</title>
<path fill="none" stroke="#000000" d="M133.2975,-318.804C133.2975,-311.5358 133.2975,-301.7135 133.2975,-292.3916"/>
<polygon fill="#000000" stroke="#000000" points="133.2975,-282.2423 137.7976,-292.2423 133.2975,-287.2423 133.2976,-292.2423 133.2976,-292.2423 133.2976,-292.2423 133.2975,-287.2423 128.7976,-292.2424 133.2975,-282.2423 133.2975,-282.2423"/>
</g>
<!-- A2 -->
<g id="node3" class="node">
<title>A2</title>
<path fill="none" stroke="#000000" d="M96.3933,-198C96.3933,-198 12.2017,-198 12.2017,-198 6.2017,-198 .2017,-192 .2017,-186 .2017,-186 .2017,-174 .2017,-174 .2017,-168 6.2017,-162 12.2017,-162 12.2017,-162 96.3933,-162 96.3933,-162 102.3933,-162 108.3933,-168 108.3933,-174 108.3933,-174 108.3933,-186 108.3933,-186 108.3933,-192 102.3933,-198 96.3933,-198"/>
<text text-anchor="middle" x="54.2975" y="-177" font-family="Helvetica,sans-Serif" font-size="10.00" fill="#000000">{AguardaJogador}</text>
</g>
<!-- A1&#45;&gt;A2 -->
<g id="edge2" class="edge">
<title>A1&#45;&gt;A2</title>
<path fill="none" stroke="#000000" d="M116.1557,-245.7733C105.0787,-233.9952 90.504,-218.4981 78.2843,-205.5049"/>
<polygon fill="#000000" stroke="#000000" points="71.4059,-198.1912 81.5349,-202.3928 74.8314,-201.8335 78.2568,-205.4758 78.2568,-205.4758 78.2568,-205.4758 74.8314,-201.8335 74.9788,-208.5587 71.4059,-198.1912 71.4059,-198.1912"/>
<text text-anchor="middle" x="120.689" y="-219" font-family="Helvetica,sans-Serif" font-size="10.00" fill="#000000">[Comeca]</text>
</g>
<!-- A2&#45;&gt;A2 -->
<g id="edge3" class="edge">
<title>A2&#45;&gt;A2</title>
<path fill="none" stroke="#000000" d="M108.5279,-187.5246C119.0927,-186.6508 126.595,-184.1426 126.595,-180 126.595,-177.3462 123.5161,-175.3631 118.5254,-174.0507"/>
<polygon fill="#000000" stroke="#000000" points="108.5279,-172.4754 119.1065,-169.5868 113.467,-173.2537 118.406,-174.032 118.406,-174.032 118.406,-174.032 113.467,-173.2537 117.7056,-178.4772 108.5279,-172.4754 108.5279,-172.4754"/>
<text text-anchor="middle" x="151.606" y="-177" font-family="Helvetica,sans-Serif" font-size="10.00" fill="#000000">[JogaPeca]</text>
</g>
<!-- A3 -->
<g id="node4" class="node">
<title>A3</title>
<path fill="none" stroke="#000000" d="M105.7725,-114C105.7725,-114 16.8225,-114 16.8225,-114 10.8225,-114 4.8225,-108 4.8225,-102 4.8225,-102 4.8225,-90 4.8225,-90 4.8225,-84 10.8225,-78 16.8225,-78 16.8225,-78 105.7725,-78 105.7725,-78 111.7725,-78 117.7725,-84 117.7725,-90 117.7725,-90 117.7725,-102 117.7725,-102 117.7725,-108 111.7725,-114 105.7725,-114"/>
<text text-anchor="middle" x="61.2975" y="-93" font-family="Helvetica,sans-Serif" font-size="10.00" fill="#000000">{AguardaMiniJogo}</text>
</g>
<!-- A2&#45;&gt;A3 -->
<g id="edge4" class="edge">
<title>A2&#45;&gt;A3</title>
<path fill="none" stroke="#000000" d="M43.6331,-161.8329C39.6771,-152.8831 36.7529,-141.9106 39.5175,-132 40.3541,-129.0008 41.516,-126.0024 42.8716,-123.0875"/>
<polygon fill="#000000" stroke="#000000" points="47.7006,-114.163 46.8993,-125.0996 45.3211,-118.5606 42.9416,-122.9581 42.9416,-122.9581 42.9416,-122.9581 45.3211,-118.5606 38.9838,-120.8165 47.7006,-114.163 47.7006,-114.163"/>
<text text-anchor="middle" x="61.6875" y="-135" font-family="Helvetica,sans-Serif" font-size="10.00" fill="#000000">[Minijogo]</text>
</g>
<!-- A4 -->
<g id="node5" class="node">
<title>A4</title>
<path fill="none" stroke="#000000" d="M216.8095,-114C216.8095,-114 167.7855,-114 167.7855,-114 161.7855,-114 155.7855,-108 155.7855,-102 155.7855,-102 155.7855,-90 155.7855,-90 155.7855,-84 161.7855,-78 167.7855,-78 167.7855,-78 216.8095,-78 216.8095,-78 222.8095,-78 228.8095,-84 228.8095,-90 228.8095,-90 228.8095,-102 228.8095,-102 228.8095,-108 222.8095,-114 216.8095,-114"/>
<text text-anchor="middle" x="192.2975" y="-93" font-family="Helvetica,sans-Serif" font-size="10.00" fill="#000000">{FimJogo}</text>
</g>
<!-- A2&#45;&gt;A4 -->
<g id="edge6" class="edge">
<title>A2&#45;&gt;A4</title>
<path fill="none" stroke="#000000" d="M83.902,-161.9799C104.2272,-149.608 131.411,-133.0614 153.4709,-119.6336"/>
<polygon fill="#000000" stroke="#000000" points="162.2658,-114.2801 156.0636,-123.3236 157.9948,-116.8799 153.7238,-119.4797 153.7238,-119.4797 153.7238,-119.4797 157.9948,-116.8799 151.384,-115.6358 162.2658,-114.2801 162.2658,-114.2801"/>
<text text-anchor="middle" x="153.408" y="-135" font-family="Helvetica,sans-Serif" font-size="10.00" fill="#000000">[Termina]</text>
</g>
<!-- A3&#45;&gt;A2 -->
<g id="edge5" class="edge">
<title>A3&#45;&gt;A2</title>
<path fill="none" stroke="#000000" d="M76.3421,-114.4107C81.731,-123.2287 85.7218,-134.0198 82.2975,-144 81.158,-147.321 79.5732,-150.5717 77.7314,-153.6768"/>
<polygon fill="#000000" stroke="#000000" points="72.0173,-161.9794 73.9798,-151.1905 74.852,-157.8606 77.6867,-153.7418 77.6867,-153.7418 77.6867,-153.7418 74.852,-157.8606 81.3937,-156.293 72.0173,-161.9794 72.0173,-161.9794"/>
</g>
<!-- A4&#45;&gt;A1 -->
<g id="edge8" class="edge">
<title>A4&#45;&gt;A1</title>
<path fill="none" stroke="#000000" d="M194.1868,-114.0084C195.6858,-134.943 196.0228,-170.1756 185.2975,-198 179.5852,-212.8193 169.3262,-226.9712 159.4212,-238.3429"/>
<polygon fill="#000000" stroke="#000000" points="152.6806,-245.7456 156.086,-235.3218 156.0469,-242.0486 159.4133,-238.3516 159.4133,-238.3516 159.4133,-238.3516 156.0469,-242.0486 162.7406,-241.3813 152.6806,-245.7456 152.6806,-245.7456"/>
<text text-anchor="middle" x="222.633" y="-177" font-family="Helvetica,sans-Serif" font-size="10.00" fill="#000000">[Recomecar]</text>
</g>
<!-- A5 -->
<g id="node6" class="node">
<title>A5</title>
<ellipse fill="none" stroke="#000000" cx="192.2975" cy="-15" rx="11" ry="11"/>
<ellipse fill="none" stroke="#000000" cx="192.2975" cy="-15" rx="15" ry="15"/>
</g>
<!-- A4&#45;&gt;A5 -->
<g id="edge7" class="edge">
<title>A4&#45;&gt;A5</title>
<path fill="none" stroke="#000000" d="M192.2975,-77.6198C192.2975,-66.6129 192.2975,-52.4617 192.2975,-40.3973"/>
<polygon fill="#000000" stroke="#000000" points="192.2975,-30.0545 196.7976,-40.0545 192.2975,-35.0545 192.2976,-40.0545 192.2976,-40.0545 192.2976,-40.0545 192.2975,-35.0545 187.7976,-40.0546 192.2975,-30.0545 192.2975,-30.0545"/>
<text text-anchor="middle" x="213.408" y="-51" font-family="Helvetica,sans-Serif" font-size="10.00" fill="#000000">[Termina]</text>
</g>
</g>
</svg>
