<?xml version="1.0" encoding="UTF-8" standalone="no"?>
<!DOCTYPE svg PUBLIC "-//W3C//DTD SVG 1.1//EN"
 "http://www.w3.org/Graphics/SVG/1.1/DTD/svg11.dtd">
<!-- Generated by graphviz version 2.40.1 (20161225.0304)
 -->
<!-- Title: G Pages: 1 -->
<svg width="363pt" height="349pt"
 viewBox="0.00 0.00 362.91 349.00" xmlns="http://www.w3.org/2000/svg" xmlns:xlink="http://www.w3.org/1999/xlink">
<g id="graph0" class="graph" transform="scale(1 1) rotate(0) translate(4 345)">
<title>G</title>
<polygon fill="#ffffff" stroke="transparent" points="-4,4 -4,-345 358.908,-345 358.908,4 -4,4"/>
<!-- A0 -->
<g id="node1" class="node">
<title>A0</title>
<ellipse fill="none" stroke="#000000" cx="188.237" cy="-330" rx="11" ry="11"/>
</g>
<!-- A1 -->
<g id="node2" class="node">
<title>A1</title>
<path fill="none" stroke="#000000" d="M224.0432,-282C224.0432,-282 152.4308,-282 152.4308,-282 146.4308,-282 140.4308,-276 140.4308,-270 140.4308,-270 140.4308,-258 140.4308,-258 140.4308,-252 146.4308,-246 152.4308,-246 152.4308,-246 224.0432,-246 224.0432,-246 230.0432,-246 236.0432,-252 236.0432,-258 236.0432,-258 236.0432,-270 236.0432,-270 236.0432,-276 230.0432,-282 224.0432,-282"/>
<text text-anchor="middle" x="188.237" y="-261" font-family="Helvetica,sans-Serif" font-size="10.00" fill="#000000">{AguardaInicio}</text>
</g>
<!-- A0&#45;&gt;A1 -->
<g id="edge1" class="edge">
<title>A0&#45;&gt;A1</title>
<path fill="none" stroke="#000000" d="M188.237,-318.804C188.237,-311.5358 188.237,-301.7135 188.237,-292.3916"/>
<polygon fill="#000000" stroke="#000000" points="188.237,-282.2423 192.7371,-292.2423 188.237,-287.2423 188.2371,-292.2423 188.2371,-292.2423 188.2371,-292.2423 188.237,-287.2423 183.7371,-292.2424 188.237,-282.2423 188.237,-282.2423"/>
</g>
<!-- A2 -->
<g id="node3" class="node">
<title>A2</title>
<path fill="none" stroke="#000000" d="M98.3328,-198C98.3328,-198 14.1412,-198 14.1412,-198 8.1412,-198 2.1412,-192 2.1412,-186 2.1412,-186 2.1412,-174 2.1412,-174 2.1412,-168 8.1412,-162 14.1412,-162 14.1412,-162 98.3328,-162 98.3328,-162 104.3328,-162 110.3328,-168 110.3328,-174 110.3328,-174 110.3328,-186 110.3328,-186 110.3328,-192 104.3328,-198 98.3328,-198"/>
<text text-anchor="middle" x="56.237" y="-177" font-family="Helvetica,sans-Serif" font-size="10.00" fill="#000000">{AguardaJogador}</text>
</g>
<!-- A1&#45;&gt;A2 -->
<g id="edge2" class="edge">
<title>A1&#45;&gt;A2</title>
<path fill="none" stroke="#000000" d="M159.9197,-245.9799C140.5646,-233.663 114.7073,-217.2084 93.6571,-203.8128"/>
<polygon fill="#000000" stroke="#000000" points="84.9629,-198.2801 95.8155,-199.8525 89.1813,-200.9645 93.3996,-203.6489 93.3996,-203.6489 93.3996,-203.6489 89.1813,-200.9645 90.9836,-207.4454 84.9629,-198.2801 84.9629,-198.2801"/>
<text text-anchor="middle" x="151.6285" y="-219" font-family="Helvetica,sans-Serif" font-size="10.00" fill="#000000">[Comeca]</text>
</g>
<!-- A2&#45;&gt;A2 -->
<g id="edge3" class="edge">
<title>A2&#45;&gt;A2</title>
<path fill="none" stroke="#000000" d="M110.4674,-183.7623C121.0322,-183.3254 128.5345,-182.0713 128.5345,-180 128.5345,-178.6731 125.4556,-177.6815 120.4649,-177.0254"/>
<polygon fill="#000000" stroke="#000000" points="110.4674,-176.2377 120.79,-172.5371 115.452,-176.6305 120.4365,-177.0232 120.4365,-177.0232 120.4365,-177.0232 115.452,-176.6305 120.083,-181.5093 110.4674,-176.2377 110.4674,-176.2377"/>
<text text-anchor="middle" x="153.5455" y="-177" font-family="Helvetica,sans-Serif" font-size="10.00" fill="#000000">[JogaPeca]</text>
</g>
<!-- A2&#45;&gt;A2 -->
<g id="edge4" class="edge">
<title>A2&#45;&gt;A2</title>
<path fill="none" stroke="#000000" d="M110.4241,-187.4846C144.0917,-188.9138 178.5565,-186.4189 178.5565,-180 178.5565,-174.233 150.7369,-171.6334 120.6699,-172.2014"/>
<polygon fill="#000000" stroke="#000000" points="110.4241,-172.5154 120.2815,-167.7111 115.4217,-172.3622 120.4194,-172.209 120.4194,-172.209 120.4194,-172.209 115.4217,-172.3622 120.5573,-176.7068 110.4241,-172.5154 110.4241,-172.5154"/>
<text text-anchor="middle" x="222.739" y="-177" font-family="Helvetica,sans-Serif" font-size="10.00" fill="#000000">[JogaPecaDourada]</text>
</g>
<!-- A3 -->
<g id="node4" class="node">
<title>A3</title>
<path fill="none" stroke="#000000" d="M100.712,-114C100.712,-114 11.762,-114 11.762,-114 5.762,-114 -.238,-108 -.238,-102 -.238,-102 -.238,-90 -.238,-90 -.238,-84 5.762,-78 11.762,-78 11.762,-78 100.712,-78 100.712,-78 106.712,-78 112.712,-84 112.712,-90 112.712,-90 112.712,-102 112.712,-102 112.712,-108 106.712,-114 100.712,-114"/>
<text text-anchor="middle" x="56.237" y="-93" font-family="Helvetica,sans-Serif" font-size="10.00" fill="#000000">{AguardaMiniJogo}</text>
</g>
<!-- A2&#45;&gt;A3 -->
<g id="edge5" class="edge">
<title>A2&#45;&gt;A3</title>
<path fill="none" stroke="#000000" d="M38.6546,-161.9597C34.5021,-156.5972 30.6481,-150.426 28.457,-144 26.0216,-136.8576 27.6812,-129.5895 31.1567,-122.9421"/>
<polygon fill="#000000" stroke="#000000" points="36.8075,-114.3324 35.0825,-125.1618 34.064,-118.5125 31.3205,-122.6926 31.3205,-122.6926 31.3205,-122.6926 34.064,-118.5125 27.5584,-120.2234 36.8075,-114.3324 36.8075,-114.3324"/>
<text text-anchor="middle" x="50.627" y="-135" font-family="Helvetica,sans-Serif" font-size="10.00" fill="#000000">[Minijogo]</text>
</g>
<!-- A4 -->
<g id="node5" class="node">
<title>A4</title>
<path fill="none" stroke="#000000" d="M251.749,-114C251.749,-114 202.725,-114 202.725,-114 196.725,-114 190.725,-108 190.725,-102 190.725,-102 190.725,-90 190.725,-90 190.725,-84 196.725,-78 202.725,-78 202.725,-78 251.749,-78 251.749,-78 257.749,-78 263.749,-84 263.749,-90 263.749,-90 263.749,-102 263.749,-102 263.749,-108 257.749,-114 251.749,-114"/>
<text text-anchor="middle" x="227.237" y="-93" font-family="Helvetica,sans-Serif" font-size="10.00" fill="#000000">{FimJogo}</text>
</g>
<!-- A2&#45;&gt;A4 -->
<g id="edge7" class="edge">
<title>A2&#45;&gt;A4</title>
<path fill="none" stroke="#000000" d="M92.9208,-161.9799C118.8424,-149.2465 153.7667,-132.0907 181.5056,-118.4645"/>
<polygon fill="#000000" stroke="#000000" points="190.6139,-113.9903 183.6224,-122.4384 186.1261,-116.1949 181.6383,-118.3994 181.6383,-118.3994 181.6383,-118.3994 186.1261,-116.1949 179.6542,-114.3604 190.6139,-113.9903 190.6139,-113.9903"/>
<text text-anchor="middle" x="173.3475" y="-135" font-family="Helvetica,sans-Serif" font-size="10.00" fill="#000000">[Termina]</text>
</g>
<!-- A3&#45;&gt;A2 -->
<g id="edge6" class="edge">
<title>A3&#45;&gt;A2</title>
<path fill="none" stroke="#000000" d="M66.3755,-114C70.2283,-122.9103 73.2574,-133.8978 71.237,-144 70.6955,-146.7076 69.9458,-149.4661 69.0681,-152.1907"/>
<polygon fill="#000000" stroke="#000000" points="65.4712,-161.7573 64.7784,-150.8133 67.2309,-157.0772 68.9906,-152.397 68.9906,-152.397 68.9906,-152.397 67.2309,-157.0772 73.2027,-153.9808 65.4712,-161.7573 65.4712,-161.7573"/>
</g>
<!-- A4&#45;&gt;A1 -->
<g id="edge9" class="edge">
<title>A4&#45;&gt;A1</title>
<path fill="none" stroke="#000000" d="M253.1642,-114.3211C278.1752,-134.378 309.9669,-167.7237 293.237,-198 282.629,-217.1974 263.8376,-231.5672 245.0552,-241.9117"/>
<polygon fill="#000000" stroke="#000000" points="236.1646,-246.5268 242.9668,-237.9255 240.6023,-244.2231 245.0401,-241.9195 245.0401,-241.9195 245.0401,-241.9195 240.6023,-244.2231 247.1133,-245.9134 236.1646,-246.5268 236.1646,-246.5268"/>
<text text-anchor="middle" x="326.5725" y="-177" font-family="Helvetica,sans-Serif" font-size="10.00" fill="#000000">[Recomecar]</text>
</g>
<!-- A5 -->
<g id="node6" class="node">
<title>A5</title>
<ellipse fill="none" stroke="#000000" cx="227.237" cy="-15" rx="11" ry="11"/>
<ellipse fill="none" stroke="#000000" cx="227.237" cy="-15" rx="15" ry="15"/>
</g>
<!-- A4&#45;&gt;A5 -->
<g id="edge8" class="edge">
<title>A4&#45;&gt;A5</title>
<path fill="none" stroke="#000000" d="M227.237,-77.6198C227.237,-66.6129 227.237,-52.4617 227.237,-40.3973"/>
<polygon fill="#000000" stroke="#000000" points="227.237,-30.0545 231.7371,-40.0545 227.237,-35.0545 227.2371,-40.0545 227.2371,-40.0545 227.2371,-40.0545 227.237,-35.0545 222.7371,-40.0546 227.237,-30.0545 227.237,-30.0545"/>
<text text-anchor="middle" x="248.3475" y="-51" font-family="Helvetica,sans-Serif" font-size="10.00" fill="#000000">[Termina]</text>
</g>
</g>
</svg>
