<?xml version="1.0" encoding="UTF-8" standalone="no"?>
<!DOCTYPE svg PUBLIC "-//W3C//DTD SVG 1.1//EN"
 "http://www.w3.org/Graphics/SVG/1.1/DTD/svg11.dtd">
<!-- Generated by graphviz version 2.40.1 (20161225.0304)
 -->
<!-- Title: G Pages: 1 -->
<svg width="254pt" height="349pt"
 viewBox="0.00 0.00 253.97 349.00" xmlns="http://www.w3.org/2000/svg" xmlns:xlink="http://www.w3.org/1999/xlink">
<g id="graph0" class="graph" transform="scale(1 1) rotate(0) translate(4 345)">
<title>G</title>
<polygon fill="#ffffff" stroke="transparent" points="-4,4 -4,-345 249.9685,-345 249.9685,4 -4,4"/>
<!-- A0 -->
<g id="node1" class="node">
<title>A0</title>
<ellipse fill="none" stroke="#000000" cx="133.2975" cy="-330" rx="11" ry="11"/>
</g>
<!-- A1 -->
<g id="node2" class="node">
<title>A1</title>
<path fill="none" stroke="#000000" d="M169.1037,-282C169.1037,-282 97.4913,-282 97.4913,-282 91.4913,-282 85.4913,-276 85.4913,-270 85.4913,-270 85.4913,-258 85.4913,-258 85.4913,-252 91.4913,-246 97.4913,-246 97.4913,-246 169.1037,-246 169.1037,-246 175.1037,-246 181.1037,-252 181.1037,-258 181.1037,-258 181.1037,-270 181.1037,-270 181.1037,-276 175.1037,-282 169.1037,-282"/>
<text text-anchor="middle" x="133.2975" y="-261" font-family="Helvetica,sans-Serif" font-size="10.00" fill="#000000">{AguardaInicio}</text>
</g>
<!-- A0&#45;&gt;A1 -->
<g id="edge1" class="edge">
<title>A0&#45;&gt;A1</title>
<path fill="none" stroke="#000000" d="M133.2975,-318.804C133.2975,-311.5358 133.2975,-301.7135 133.2975,-292.3916"/>
<polygon fill="#000000" stroke="#000000" points="133.2975,-282.2423 137.7976,-292.2423 133.2975,-287.2423 133.2976,-292.2423 133.2976,-292.2423 133.2976,-292.2423 133.2975,-287.2423 128.7976,-292.2424 133.2975,-282.2423 133.2975,-282.2423"/>
</g>
<!-- A2 -->
<g id="node3" class="node">
<title>A2</title>
<path fill="none" stroke="#000000" d="M96.3933,-198C96.3933,-198 12.2017,-198 12.2017,-198 6.2017,-198 .2017,-192 .2017,-186 .2017,-186 .2017,-174 .2017,-174 .2017,-168 6.2017,-162 12.2017,-162 12.2017,-162 96.3933,-162 96.3933,-162 102.3933,-162 108.3933,-168 108.3933,-174 108.3933,-174 108.3933,-186 108.3933,-186 108.3933,-192 102.3933,-198 96.3933,-198"/>
<text text-anchor="middle" x="54.2975" y="-177" font-family="Helvetica,sans-Serif" font-size="10.00" fill="#000000">{AguardaJogador}</text>
</g>
<!-- A1&#45;&gt;A2 -->
<g id="edge2" class="edge">
<title>A1&#45;&gt;A2</title>
<path fill="none" stroke="#000000" d="M116.1557,-245.7733C105.0787,-233.9952 90.504,-218.4981 78.2843,-205.5049"/>
<polygon fill="#000000" stroke="#000000" points="71.4059,-198.1912 81.5349,-202.3928 74.8314,-201.8335 78.2568,-205.4758 78.2568,-205.4758 78.2568,-205.4758 74.8314,-201.8335 74.9788,-208.5587 71.4059,-198.1912 71.4059,-198.1912"/>
<text text-anchor="middle" x="120.689" y="-219" font-family="Helvetica,sans-Serif" font-size="10.00" fill="#000000">[Comeca]</text>
</g>
<!-- A2&#45;&gt;A2 -->
<g id="edge3" class="edge">
<title>A2&#45;&gt;A2</title>
<path fill="none" stroke="#000000" d="M108.5279,-187.5246C119.0927,-186.6508 126.595,-184.1426 126.595,-180 126.595,-177.3462 123.5161,-175.3631 118.5254,-174.0507"/>
<polygon fill="#000000" stroke="#000000" points="108.5279,-172.4754 119.1065,-169.5868 113.467,-173.2537 118.406,-174.032 118.406,-174.032 118.406,-174.032 113.467,-173.2537 117.7056,-178.4772 108.5279,-172.4754 108.5279,-172.4754"/>
<text text-anchor="middle" x="151.606" y="-177" font-family="Helvetica,sans-Serif" font-size="10.00" fill="#000000">[JogaPeca]</text>
</g>
<!-- A3 -->
<g id="node4" class="node">
<title>A3</title>
<path fill="none" stroke="#000000" d="M157.8095,-114C157.8095,-114 108.7855,-114 108.7855,-114 102.7855,-114 96.7855,-108 96.7855,-102 96.7855,-102 96.7855,-90 96.7855,-90 96.7855,-84 102.7855,-78 108.7855,-78 108.7855,-78 157.8095,-78 157.8095,-78 163.8095,-78 169.8095,-84 169.8095,-90 169.8095,-90 169.8095,-102 169.8095,-102 169.8095,-108 163.8095,-114 157.8095,-114"/>
<text text-anchor="middle" x="133.2975" y="-93" font-family="Helvetica,sans-Serif" font-size="10.00" fill="#000000">{FimJogo}</text>
</g>
<!-- A2&#45;&gt;A3 -->
<g id="edge4" class="edge">
<title>A2&#45;&gt;A3</title>
<path fill="none" stroke="#000000" d="M71.4393,-161.7733C82.5163,-149.9952 97.091,-134.4981 109.3107,-121.5049"/>
<polygon fill="#000000" stroke="#000000" points="116.1891,-114.1912 112.6162,-124.5587 112.7636,-117.8335 109.3382,-121.4758 109.3382,-121.4758 109.3382,-121.4758 112.7636,-117.8335 106.0601,-118.3928 116.1891,-114.1912 116.1891,-114.1912"/>
<text text-anchor="middle" x="120.408" y="-135" font-family="Helvetica,sans-Serif" font-size="10.00" fill="#000000">[Termina]</text>
</g>
<!-- A3&#45;&gt;A1 -->
<g id="edge6" class="edge">
<title>A3&#45;&gt;A1</title>
<path fill="none" stroke="#000000" d="M153.109,-114.0977C164.9486,-126.3134 178.8959,-143.5308 185.2975,-162 190.5374,-177.1176 190.5374,-182.8824 185.2975,-198 180.0962,-213.0062 169.9136,-227.1861 159.9275,-238.5282"/>
<polygon fill="#000000" stroke="#000000" points="153.109,-245.9023 156.594,-235.5049 156.5036,-242.2312 159.8981,-238.56 159.8981,-238.56 159.8981,-238.56 156.5036,-242.2312 163.2021,-241.6151 153.109,-245.9023 153.109,-245.9023"/>
<text text-anchor="middle" x="217.633" y="-177" font-family="Helvetica,sans-Serif" font-size="10.00" fill="#000000">[Recomecar]</text>
</g>
<!-- A4 -->
<g id="node5" class="node">
<title>A4</title>
<ellipse fill="none" stroke="#000000" cx="133.2975" cy="-15" rx="11" ry="11"/>
<ellipse fill="none" stroke="#000000" cx="133.2975" cy="-15" rx="15" ry="15"/>
</g>
<!-- A3&#45;&gt;A4 -->
<g id="edge5" class="edge">
<title>A3&#45;&gt;A4</title>
<path fill="none" stroke="#000000" d="M133.2975,-77.6198C133.2975,-66.6129 133.2975,-52.4617 133.2975,-40.3973"/>
<polygon fill="#000000" stroke="#000000" points="133.2975,-30.0545 137.7976,-40.0545 133.2975,-35.0545 133.2976,-40.0545 133.2976,-40.0545 133.2976,-40.0545 133.2975,-35.0545 128.7976,-40.0546 133.2975,-30.0545 133.2975,-30.0545"/>
<text text-anchor="middle" x="154.408" y="-51" font-family="Helvetica,sans-Serif" font-size="10.00" fill="#000000">[Termina]</text>
</g>
</g>
</svg>
